<svg width="24" height="88" viewBox="0 0 24 88" fill="none" xmlns="http://www.w3.org/2000/svg">
<path d="M9 22H15C20 22 22 20 22 15V9C22 4 20 2 15 2H9C4 2 2 4 2 9V15C2 20 4 22 9 22Z" stroke="white" stroke-width="1.5" stroke-linecap="round" stroke-linejoin="round"/>
<path d="M16.28 13.61C15.15 14.74 13.53 15.09 12.1 14.64L9.51001 17.22C9.33001 17.41 8.96001 17.53 8.69001 17.49L7.49001 17.33C7.09001 17.28 6.73001 16.9 6.67001 16.51L6.51001 15.31C6.47001 15.05 6.60001 14.68 6.78001 14.49L9.36001 11.91C8.92001 10.48 9.26001 8.86001 10.39 7.73001C12.01 6.11001 14.65 6.11001 16.28 7.73001C17.9 9.34001 17.9 11.98 16.28 13.61Z" stroke="white" stroke-width="1.5" stroke-miterlimit="10" stroke-linecap="round" stroke-linejoin="round"/>
<path d="M10.45 16.28L9.59998 15.42" stroke="white" stroke-width="1.5" stroke-miterlimit="10" stroke-linecap="round" stroke-linejoin="round"/>
<path d="M13.3945 10.7H13.4035" stroke="white" stroke-width="2" stroke-linecap="round" stroke-linejoin="round"/>
<path d="M15 86.75H9C3.57 86.75 1.25 84.43 1.25 79V73C1.25 67.57 3.57 65.25 9 65.25H15C20.43 65.25 22.75 67.57 22.75 73V79C22.75 84.43 20.43 86.75 15 86.75ZM9 66.75C4.39 66.75 2.75 68.39 2.75 73V79C2.75 83.61 4.39 85.25 9 85.25H15C19.61 85.25 21.25 83.61 21.25 79V73C21.25 68.39 19.61 66.75 15 66.75H9Z" fill="#9197B3"/>
<path d="M12.0006 77.0797C11.8706 77.0797 11.7406 77.0497 11.6206 76.9797L6.32061 73.9197C5.96061 73.7097 5.84059 73.2497 6.05059 72.8997C6.26059 72.5397 6.72061 72.4197 7.07061 72.6297L11.9906 75.4797L16.8806 72.6497C17.2406 72.4397 17.7006 72.5697 17.9006 72.9197C18.1006 73.2697 17.9806 73.7397 17.6306 73.9397L12.3706 76.9797C12.2606 77.0397 12.1306 77.0797 12.0006 77.0797Z" fill="#9197B3"/>
<path d="M12 82.5201C11.59 82.5201 11.25 82.1801 11.25 81.7701V76.3301C11.25 75.9201 11.59 75.5801 12 75.5801C12.41 75.5801 12.75 75.9201 12.75 76.3301V81.7701C12.75 82.1801 12.41 82.5201 12 82.5201Z" fill="#9197B3"/>
<path d="M12.0002 82.7498C11.4202 82.7498 10.8503 82.6198 10.3903 82.3698L7.19025 80.5898C6.23025 80.0598 5.49023 78.7898 5.49023 77.6898V74.2998C5.49023 73.2098 6.24025 71.9398 7.19025 71.3998L10.3903 69.6198C11.3103 69.1098 12.6902 69.1098 13.6102 69.6198L16.8102 71.3998C17.7702 71.9298 18.5103 73.1998 18.5103 74.2998V77.6898C18.5103 78.7798 17.7602 80.0498 16.8102 80.5898L13.6102 82.3698C13.1502 82.6298 12.5802 82.7498 12.0002 82.7498ZM12.0002 70.7498C11.6702 70.7498 11.3502 70.8098 11.1202 70.9398L7.92026 72.7198C7.43026 72.9898 6.99023 73.7498 6.99023 74.2998V77.6898C6.99023 78.2498 7.43026 78.9998 7.92026 79.2698L11.1202 81.0498C11.5802 81.3098 12.4202 81.3098 12.8802 81.0498L16.0802 79.2698C16.5702 78.9998 17.0103 78.2398 17.0103 77.6898V74.2998C17.0103 73.7398 16.5702 72.9898 16.0802 72.7198L12.8802 70.9398C12.6502 70.8098 12.3302 70.7498 12.0002 70.7498Z" fill="#9197B3"/>
</svg>
